<?xml version="1.0" standalone="no"?>
<!DOCTYPE svg PUBLIC "-//W3C//DTD SVG 20010904//EN"
 "http://www.w3.org/TR/2001/REC-SVG-20010904/DTD/svg10.dtd">
<svg version="1.0" xmlns="http://www.w3.org/2000/svg"
 width="300.000000pt" height="300.000000pt" viewBox="0 0 300.000000 300.000000"
 preserveAspectRatio="xMidYMid meet">
<metadata>
Created by potrace 1.10, written by Peter Selinger 2001-2011
</metadata>
<g transform="translate(0.000000,300.000000) scale(0.100000,-0.100000)"
fill="#000000" stroke="none">
<path d="M740 2290 l0 -250 35 0 35 0 2 213 3 212 213 3 213 2 -3 33 -3 32
-247 3 -248 2 0 -250z"/>
<path d="M1420 2310 c-415 -64 -597 -569 -317 -877 104 -113 234 -173 382
-176 237 -4 440 138 516 360 33 95 33 240 1 335 -84 246 -330 396 -582 358z
m234 -60 c98 -33 202 -114 260 -200 19 -28 22 -50 4 -32 -22 22 -48 14 -48
-13 0 -22 4 -25 34 -25 47 0 59 -17 39 -58 -16 -32 -70 -82 -89 -82 -5 0 -36
27 -69 60 -32 33 -61 58 -63 56 -7 -7 36 -81 60 -103 12 -12 35 -26 51 -32 36
-14 34 -28 -12 -83 -29 -35 -40 -59 -45 -97 -4 -28 -11 -53 -17 -56 -5 -4 -23
-33 -39 -64 -29 -58 -79 -111 -105 -111 -33 0 -74 111 -84 228 -9 107 -17 115
-126 123 -47 4 -92 12 -99 19 -24 19 -29 66 -12 124 29 98 89 146 183 146 36
0 53 -5 66 -20 13 -16 29 -20 76 -20 83 0 111 12 111 48 0 52 -26 62 -182 72
-9 1 -35 -12 -59 -29 -46 -34 -98 -41 -119 -16 -10 12 -9 19 4 37 9 13 28 38
41 57 14 19 25 46 25 61 0 15 3 30 8 34 12 13 143 -2 206 -24z m-254 -9 c0
-10 -16 -42 -36 -71 -33 -48 -35 -56 -26 -86 8 -29 7 -35 -14 -55 -40 -38 -74
-121 -74 -182 0 -46 4 -57 29 -81 30 -29 81 -45 143 -46 50 0 68 -21 68 -79 0
-65 45 -199 78 -234 22 -24 33 -28 61 -23 19 3 47 18 63 33 37 35 114 176 122
224 4 20 20 54 36 74 17 21 35 54 41 74 11 38 71 97 89 86 15 -10 12 -140 -6
-209 -30 -116 -111 -232 -209 -296 -130 -86 -333 -97 -480 -26 -69 33 -135 83
-135 101 0 5 9 18 19 29 23 25 61 118 61 150 0 27 -33 59 -75 73 -17 6 -57 30
-88 53 -52 39 -57 46 -57 80 0 98 77 251 163 326 48 42 170 104 204 104 16 0
23 -6 23 -19z m238 -161 c31 0 42 -4 42 -15 0 -19 -100 -21 -118 -3 -19 19
-14 31 11 24 12 -3 41 -6 65 -6z m-578 -371 c28 -31 46 -42 78 -46 23 -3 46
-11 52 -18 11 -14 -3 -63 -40 -134 -25 -50 -34 -46 -79 33 -42 74 -77 206 -55
206 4 0 23 -18 44 -41z"/>
<path d="M2188 1308 l-3 -213 -212 -3 -213 -2 0 -35 0 -35 250 0 250 0 -2 248
-3 247 -32 3 -33 3 -2 -213z"/>
<path d="M670 775 c0 -63 4 -105 10 -105 6 0 10 22 10 49 0 53 20 84 49 79 12
-2 17 -17 19 -66 2 -46 7 -62 17 -62 11 0 15 13 15 48 0 26 -3 57 -6 70 -8 27
-49 40 -76 23 -16 -10 -18 -8 -18 29 0 22 -4 40 -10 40 -6 0 -10 -42 -10 -105z"/>
<path d="M1140 775 c0 -63 4 -105 10 -105 6 0 10 10 10 23 0 22 16 47 31 47 4
0 16 -16 28 -35 11 -19 27 -35 36 -35 12 0 9 11 -16 46 l-31 46 28 29 c22 23
24 29 11 29 -9 0 -32 -17 -52 -37 l-34 -38 -1 68 c0 38 -4 67 -10 67 -6 0 -10
-42 -10 -105z"/>
<path d="M1331 811 c-28 -38 -51 -74 -51 -80 0 -7 20 -11 50 -11 47 0 50 -2
50 -25 0 -14 5 -25 10 -25 6 0 10 11 10 25 0 16 6 25 15 25 8 0 15 7 15 15 0
9 -6 12 -15 9 -12 -5 -15 6 -15 65 0 39 -4 71 -9 71 -5 0 -32 -31 -60 -69z
m49 -21 l0 -50 -35 0 c-19 0 -35 2 -35 5 0 6 63 95 67 95 2 0 3 -22 3 -50z"/>
<path d="M2278 864 c-5 -4 -8 -16 -8 -26 0 -10 -7 -18 -15 -18 -8 0 -15 -4
-15 -10 0 -5 7 -10 15 -10 10 0 15 -16 17 -62 3 -60 4 -63 31 -66 18 -2 27 1
27 11 0 8 -8 14 -17 13 -15 -1 -19 9 -21 52 -3 47 -1 52 17 52 12 0 21 5 21
10 0 6 -9 10 -19 10 -14 0 -21 8 -23 26 -2 14 -6 22 -10 18z"/>
<path d="M844 806 c-26 -19 -13 -30 19 -15 21 9 30 9 42 -1 22 -18 18 -30 -9
-30 -46 0 -76 -18 -76 -45 0 -34 39 -53 75 -37 15 7 25 8 25 2 0 -6 5 -10 10
-10 6 0 10 28 10 65 0 53 -3 66 -19 75 -27 14 -54 13 -77 -4z m76 -81 c0 -24
-46 -41 -65 -25 -12 10 -13 16 -4 26 16 19 69 18 69 -1z"/>
<path d="M1000 800 c-12 -12 -20 -33 -20 -55 0 -64 65 -99 105 -55 23 26 11
39 -14 16 -38 -35 -84 9 -66 63 9 28 42 37 65 16 23 -21 36 -3 14 19 -21 22
-60 20 -84 -4z"/>
<path d="M1460 745 c0 -60 3 -75 15 -75 12 0 15 15 15 75 0 60 -3 75 -15 75
-12 0 -15 -15 -15 -75z"/>
<path d="M1540 744 c0 -86 15 -99 22 -19 5 64 20 85 46 69 12 -8 18 -27 20
-68 4 -68 22 -75 22 -8 0 59 20 92 47 76 13 -8 19 -26 21 -68 4 -77 22 -71 22
8 0 73 -14 92 -57 82 -16 -4 -32 -6 -38 -6 -5 0 -31 2 -57 4 l-48 4 0 -74z"/>
<path d="M1790 713 c0 -62 4 -103 10 -103 6 0 10 18 10 40 0 37 2 40 19 30 47
-24 91 7 91 65 0 51 -28 75 -85 73 l-45 -2 0 -103z m97 61 c15 -24 15 -29 2
-53 -18 -32 -41 -38 -63 -16 -20 21 -21 59 0 79 22 23 41 20 61 -10z"/>
<path d="M1964 806 c-24 -18 -10 -34 16 -18 28 17 48 15 60 -8 10 -18 8 -20
-23 -20 -44 0 -70 -20 -65 -50 5 -34 31 -47 68 -33 16 6 30 7 30 2 0 -5 5 -9
10 -9 6 0 10 26 10 58 0 44 -5 63 -18 75 -23 21 -62 22 -88 3z m86 -73 c0 -3
-7 -15 -17 -25 -28 -31 -73 -18 -59 17 5 15 76 22 76 8z"/>
<path d="M2125 800 c-39 -43 -12 -130 39 -130 31 0 70 30 57 43 -6 6 -15 4
-26 -7 -32 -32 -65 -12 -65 39 0 50 33 71 64 39 23 -22 42 -7 20 17 -22 25
-66 24 -89 -1z"/>
<path d="M681 529 c-7 -23 -10 -43 -7 -47 3 -3 9 9 12 26 4 18 11 32 16 32 6
0 8 -8 6 -18 -3 -10 1 -23 9 -30 7 -7 13 -10 13 -6 0 17 -24 84 -30 84 -4 0
-12 -18 -19 -41z"/>
<path d="M784 528 c1 -39 3 -43 26 -43 23 0 25 4 26 45 l2 45 -7 -40 c-9 -57
-38 -61 -44 -6 l-4 41 1 -42z"/>
<path d="M890 525 c0 -41 2 -45 24 -45 29 0 40 13 31 39 -4 13 -12 17 -25 14
-14 -4 -20 0 -20 12 0 12 6 16 20 12 11 -3 20 -1 20 4 0 5 -11 9 -25 9 -23 0
-25 -4 -25 -45z m48 -17 c-7 -19 -38 -22 -38 -4 0 10 9 16 21 16 12 0 19 -5
17 -12z"/>
<path d="M1060 551 c0 -11 9 -23 20 -26 22 -7 28 -35 7 -35 -7 0 -19 6 -26 13
-11 10 -13 9 -9 -3 7 -22 47 -25 55 -4 4 12 -1 22 -15 32 -28 18 -28 35 -1 27
15 -5 19 -4 15 4 -12 19 -46 13 -46 -8z"/>
<path d="M1360 555 c0 -8 -6 -12 -13 -9 -18 6 -40 -20 -35 -43 2 -12 13 -18
31 -19 25 -1 27 1 27 42 0 24 -2 44 -5 44 -3 0 -5 -7 -5 -15z m-3 -31 c8 -21
-13 -42 -28 -27 -13 13 -5 43 11 43 6 0 13 -7 17 -16z"/>
<path d="M1742 558 c-7 -7 -12 -21 -12 -33 0 -41 45 -60 70 -30 9 10 9 15 1
15 -6 0 -11 -5 -11 -11 0 -6 -10 -9 -22 -7 -17 2 -24 11 -26 31 -4 33 21 46
52 27 19 -12 20 -12 7 3 -16 20 -42 22 -59 5z"/>
<path d="M1852 525 c0 -39 2 -44 7 -21 8 39 24 39 32 1 6 -29 7 -29 8 -4 1 23
-28 65 -30 43 0 -5 -4 0 -9 11 -6 15 -8 6 -8 -30z"/>
<path d="M1152 524 c2 -22 9 -39 18 -42 13 -4 13 -3 2 11 -8 9 -11 25 -7 36 3
10 1 22 -5 26 -8 5 -10 -5 -8 -31z"/>
<path d="M1607 553 c-6 -11 4 -73 12 -73 4 0 5 18 3 40 -4 40 -7 46 -15 33z"/>
<path d="M1420 535 c-17 -21 -8 -50 18 -53 12 -2 22 1 22 7 0 6 -6 8 -14 5 -8
-3 -17 -1 -21 5 -4 7 4 11 19 11 28 0 33 9 14 28 -16 16 -23 15 -38 -3z"/>
<path d="M1523 543 c-7 -3 -12 -19 -12 -36 l1 -32 7 29 c3 17 11 30 16 30 6 0
13 -13 16 -30 l7 -29 1 31 c1 32 -12 45 -36 37z"/>
<path d="M1949 538 c-11 -8 -11 -9 3 -4 10 3 20 1 23 -3 2 -5 -4 -11 -15 -14
-30 -8 -25 -37 5 -37 21 0 25 5 25 29 0 32 -19 45 -41 29z"/>
<path d="M2053 543 c-8 -3 -13 -22 -12 -46 0 -23 3 -36 6 -29 2 6 11 12 18 12
21 0 35 32 24 53 -10 18 -15 19 -36 10z m27 -34 c0 -10 -7 -19 -15 -19 -15 0
-21 31 -9 43 11 10 24 -3 24 -24z"/>
<path d="M2211 540 c-21 -12 -9 -55 17 -58 12 -2 22 1 22 6 0 6 -9 8 -20 5
-11 -3 -20 0 -20 6 0 6 9 11 20 11 11 0 20 6 20 14 0 17 -23 27 -39 16z"/>
<path d="M2303 543 c-15 -6 -17 -49 -3 -58 6 -4 10 5 10 19 0 14 5 26 10 26 6
0 10 5 10 10 0 11 -7 12 -27 3z"/>
<path d="M1224 510 c1 -18 7 -26 24 -28 19 -3 22 1 21 30 -1 29 -2 30 -8 9 -9
-33 -29 -38 -34 -9 -4 21 -4 21 -3 -2z"/>
</g>
</svg>
